<mxfile host="app.diagrams.net" modified="2022-07-15T12:27:40.059Z" agent="5.0 (X11)" etag="8ycWWe2UVUAJAvL8ERWw" version="20.1.1" type="github">
  <diagram id="H6QaFsO8rmnWTCF_wPBy" name="Page-1">
    <mxGraphModel dx="1072" dy="582" grid="1" gridSize="10" guides="1" tooltips="1" connect="1" arrows="1" fold="1" page="1" pageScale="1" pageWidth="827" pageHeight="1169" math="0" shadow="0">
      <root>
        <mxCell id="0" />
        <mxCell id="1" parent="0" />
        <mxCell id="FrkUujYTVIfhgadddtNy-5" value="" style="rounded=0;whiteSpace=wrap;html=1;fontSize=12;fillColor=#FFFAED;dashed=1;horizontal=1;dashPattern=1 4;strokeColor=#d6b656;" vertex="1" parent="1">
          <mxGeometry x="1160" y="260" width="200" height="70" as="geometry" />
        </mxCell>
        <mxCell id="HoAdVG3oVDAy_ymMZc5b-18" value="" style="rounded=0;whiteSpace=wrap;html=1;fontSize=12;fillColor=#FFFAED;dashed=1;horizontal=1;dashPattern=1 4;strokeColor=#d6b656;" parent="1" vertex="1">
          <mxGeometry x="880.5" y="260" width="200" height="70" as="geometry" />
        </mxCell>
        <mxCell id="HoAdVG3oVDAy_ymMZc5b-1" value="" style="rounded=0;whiteSpace=wrap;html=1;fontSize=12;fillColor=none;dashed=1;horizontal=1;strokeColor=#000000;gradientColor=none;" parent="1" vertex="1">
          <mxGeometry x="600" y="350" width="200" height="140" as="geometry" />
        </mxCell>
        <mxCell id="tZ6FYn5pUXqPCZOTzb4P-66" value="" style="rounded=0;whiteSpace=wrap;html=1;fontSize=12;fillColor=#FFFAED;dashed=1;horizontal=1;dashPattern=1 4;strokeColor=#d6b656;" parent="1" vertex="1">
          <mxGeometry x="600" y="260" width="200" height="70" as="geometry" />
        </mxCell>
        <mxCell id="tZ6FYn5pUXqPCZOTzb4P-35" value="" style="rounded=0;whiteSpace=wrap;html=1;fontSize=12;fillColor=#FFFAED;dashed=1;horizontal=1;dashPattern=1 4;strokeColor=#d6b656;" parent="1" vertex="1">
          <mxGeometry x="360" y="260" width="200" height="70" as="geometry" />
        </mxCell>
        <mxCell id="tZ6FYn5pUXqPCZOTzb4P-39" value="Alice" style="text;html=1;strokeColor=none;fillColor=none;align=center;verticalAlign=middle;whiteSpace=wrap;rounded=0;fontSize=12;" parent="1" vertex="1">
          <mxGeometry x="500" y="260" width="60" height="20" as="geometry" />
        </mxCell>
        <mxCell id="tZ6FYn5pUXqPCZOTzb4P-71" style="edgeStyle=orthogonalEdgeStyle;rounded=0;orthogonalLoop=1;jettySize=auto;html=1;exitX=1;exitY=0.5;exitDx=0;exitDy=0;entryX=0;entryY=0.5;entryDx=0;entryDy=0;fontSize=12;" parent="1" source="tZ6FYn5pUXqPCZOTzb4P-42" target="tZ6FYn5pUXqPCZOTzb4P-50" edge="1">
          <mxGeometry relative="1" as="geometry" />
        </mxCell>
        <mxCell id="HoAdVG3oVDAy_ymMZc5b-5" style="edgeStyle=orthogonalEdgeStyle;rounded=0;orthogonalLoop=1;jettySize=auto;html=1;exitX=1;exitY=0.5;exitDx=0;exitDy=0;entryX=0;entryY=0.5;entryDx=0;entryDy=0;" parent="1" source="tZ6FYn5pUXqPCZOTzb4P-42" target="HoAdVG3oVDAy_ymMZc5b-4" edge="1">
          <mxGeometry relative="1" as="geometry" />
        </mxCell>
        <mxCell id="tZ6FYn5pUXqPCZOTzb4P-42" value="100 ADA" style="rounded=0;whiteSpace=wrap;html=1;fontSize=12;fillColor=#dae8fc;horizontal=1;strokeColor=#6c8ebf;" parent="1" vertex="1">
          <mxGeometry x="370" y="270" width="76" height="20" as="geometry" />
        </mxCell>
        <mxCell id="HoAdVG3oVDAy_ymMZc5b-34" style="edgeStyle=orthogonalEdgeStyle;rounded=0;orthogonalLoop=1;jettySize=auto;html=1;exitX=1;exitY=0.5;exitDx=0;exitDy=0;entryX=0;entryY=0.5;entryDx=0;entryDy=0;fontFamily=Lucida Console;fontSize=11;fontColor=#525252;" parent="1" source="tZ6FYn5pUXqPCZOTzb4P-43" target="HoAdVG3oVDAy_ymMZc5b-33" edge="1">
          <mxGeometry relative="1" as="geometry" />
        </mxCell>
        <mxCell id="HoAdVG3oVDAy_ymMZc5b-35" style="edgeStyle=orthogonalEdgeStyle;rounded=0;orthogonalLoop=1;jettySize=auto;html=1;exitX=1;exitY=0.5;exitDx=0;exitDy=0;entryX=0;entryY=0.5;entryDx=0;entryDy=0;fontFamily=Lucida Console;fontSize=11;fontColor=#525252;" parent="1" source="tZ6FYn5pUXqPCZOTzb4P-43" target="HoAdVG3oVDAy_ymMZc5b-2" edge="1">
          <mxGeometry relative="1" as="geometry">
            <Array as="points">
              <mxPoint x="550" y="300" />
              <mxPoint x="550" y="450" />
            </Array>
          </mxGeometry>
        </mxCell>
        <mxCell id="tZ6FYn5pUXqPCZOTzb4P-43" value="500 GT" style="rounded=0;whiteSpace=wrap;html=1;fontSize=12;fillColor=#dae8fc;horizontal=1;strokeColor=#6c8ebf;" parent="1" vertex="1">
          <mxGeometry x="370" y="290" width="76" height="20" as="geometry" />
        </mxCell>
        <mxCell id="tZ6FYn5pUXqPCZOTzb4P-47" value="Alice" style="text;html=1;strokeColor=none;fillColor=none;align=center;verticalAlign=middle;whiteSpace=wrap;rounded=0;fontSize=12;" parent="1" vertex="1">
          <mxGeometry x="740" y="260" width="60" height="20" as="geometry" />
        </mxCell>
        <mxCell id="tZ6FYn5pUXqPCZOTzb4P-48" value="Stake Validator" style="text;html=1;strokeColor=none;fillColor=none;align=center;verticalAlign=middle;whiteSpace=wrap;rounded=0;fontSize=12;" parent="1" vertex="1">
          <mxGeometry x="710" y="350" width="90" height="20" as="geometry" />
        </mxCell>
        <mxCell id="HoAdVG3oVDAy_ymMZc5b-21" style="edgeStyle=orthogonalEdgeStyle;rounded=0;orthogonalLoop=1;jettySize=auto;html=1;exitX=1;exitY=0.5;exitDx=0;exitDy=0;entryX=0;entryY=0.5;entryDx=0;entryDy=0;fontFamily=Lucida Console;fontSize=11;fontColor=#525252;" parent="1" source="tZ6FYn5pUXqPCZOTzb4P-50" target="HoAdVG3oVDAy_ymMZc5b-20" edge="1">
          <mxGeometry relative="1" as="geometry" />
        </mxCell>
        <mxCell id="tZ6FYn5pUXqPCZOTzb4P-50" value="98 ADA" style="rounded=0;whiteSpace=wrap;html=1;fontSize=12;fillColor=#dae8fc;horizontal=1;strokeColor=#6c8ebf;" parent="1" vertex="1">
          <mxGeometry x="614" y="270" width="76" height="20" as="geometry" />
        </mxCell>
        <mxCell id="tZ6FYn5pUXqPCZOTzb4P-60" value="&lt;h1&gt;Stakes&lt;br&gt;&lt;/h1&gt;&lt;p&gt;Example workflow of basic creation, deposit, and deletion of a Stake.&lt;br&gt;&lt;/p&gt;" style="text;html=1;strokeColor=none;fillColor=none;spacing=5;spacingTop=-20;whiteSpace=wrap;overflow=hidden;rounded=0;fontSize=12;" parent="1" vertex="1">
          <mxGeometry x="400" y="60" width="280" height="80" as="geometry" />
        </mxCell>
        <mxCell id="tZ6FYn5pUXqPCZOTzb4P-64" style="edgeStyle=orthogonalEdgeStyle;rounded=0;orthogonalLoop=1;jettySize=auto;html=1;exitX=1;exitY=0.5;exitDx=0;exitDy=0;entryX=0;entryY=0.5;entryDx=0;entryDy=0;fontSize=12;" parent="1" source="tZ6FYn5pUXqPCZOTzb4P-61" target="HoAdVG3oVDAy_ymMZc5b-3" edge="1">
          <mxGeometry relative="1" as="geometry">
            <Array as="points">
              <mxPoint x="420" y="470" />
            </Array>
            <mxPoint x="614" y="430" as="targetPoint" />
          </mxGeometry>
        </mxCell>
        <mxCell id="tZ6FYn5pUXqPCZOTzb4P-61" value="" style="triangle;whiteSpace=wrap;html=1;fontSize=12;strokeColor=default;fillColor=default;" parent="1" vertex="1">
          <mxGeometry x="380" y="450" width="40" height="40" as="geometry" />
        </mxCell>
        <mxCell id="tZ6FYn5pUXqPCZOTzb4P-65" value="1 StakeST is minted" style="text;html=1;strokeColor=none;fillColor=none;align=center;verticalAlign=middle;whiteSpace=wrap;rounded=0;fontSize=12;" parent="1" vertex="1">
          <mxGeometry x="420" y="440" width="120" height="30" as="geometry" />
        </mxCell>
        <mxCell id="HoAdVG3oVDAy_ymMZc5b-48" style="edgeStyle=orthogonalEdgeStyle;rounded=0;orthogonalLoop=1;jettySize=auto;html=1;exitX=1;exitY=0.5;exitDx=0;exitDy=0;entryX=0;entryY=0.5;entryDx=0;entryDy=0;fontFamily=Lucida Console;fontSize=11;fontColor=#525252;" parent="1" source="HoAdVG3oVDAy_ymMZc5b-2" target="HoAdVG3oVDAy_ymMZc5b-25" edge="1">
          <mxGeometry relative="1" as="geometry">
            <mxPoint x="827" y="450" as="targetPoint" />
          </mxGeometry>
        </mxCell>
        <mxCell id="HoAdVG3oVDAy_ymMZc5b-2" value="100 GT" style="rounded=0;whiteSpace=wrap;html=1;fontSize=12;fillColor=#dae8fc;horizontal=1;strokeColor=#6c8ebf;" parent="1" vertex="1">
          <mxGeometry x="614" y="440" width="106" height="20" as="geometry" />
        </mxCell>
        <mxCell id="HoAdVG3oVDAy_ymMZc5b-39" style="edgeStyle=orthogonalEdgeStyle;rounded=0;orthogonalLoop=1;jettySize=auto;html=1;exitX=1;exitY=0.5;exitDx=0;exitDy=0;entryX=0;entryY=0.5;entryDx=0;entryDy=0;fontFamily=Lucida Console;fontSize=11;fontColor=#525252;" parent="1" source="HoAdVG3oVDAy_ymMZc5b-3" target="HoAdVG3oVDAy_ymMZc5b-26" edge="1">
          <mxGeometry relative="1" as="geometry" />
        </mxCell>
        <mxCell id="HoAdVG3oVDAy_ymMZc5b-3" value="1 StakeST" style="rounded=0;whiteSpace=wrap;html=1;fontSize=12;fillColor=#dae8fc;horizontal=1;strokeColor=#6c8ebf;" parent="1" vertex="1">
          <mxGeometry x="614" y="460" width="106" height="20" as="geometry" />
        </mxCell>
        <mxCell id="HoAdVG3oVDAy_ymMZc5b-47" style="edgeStyle=orthogonalEdgeStyle;rounded=0;orthogonalLoop=1;jettySize=auto;html=1;exitX=1;exitY=0.5;exitDx=0;exitDy=0;entryX=0;entryY=0.5;entryDx=0;entryDy=0;fontFamily=Lucida Console;fontSize=11;fontColor=#525252;" parent="1" source="HoAdVG3oVDAy_ymMZc5b-4" target="HoAdVG3oVDAy_ymMZc5b-27" edge="1">
          <mxGeometry relative="1" as="geometry" />
        </mxCell>
        <mxCell id="HoAdVG3oVDAy_ymMZc5b-4" value="2 ADA" style="rounded=0;whiteSpace=wrap;html=1;fontSize=12;fillColor=#dae8fc;horizontal=1;strokeColor=#6c8ebf;" parent="1" vertex="1">
          <mxGeometry x="614" y="420" width="106" height="20" as="geometry" />
        </mxCell>
        <mxCell id="HoAdVG3oVDAy_ymMZc5b-7" value="StakeDatum (A)" style="rounded=0;whiteSpace=wrap;html=1;fontSize=12;fillColor=#d5e8d4;horizontal=1;strokeColor=#82b366;" parent="1" vertex="1">
          <mxGeometry x="614" y="380" width="106" height="40" as="geometry" />
        </mxCell>
        <mxCell id="HoAdVG3oVDAy_ymMZc5b-10" value="StakeDatum" style="swimlane;fontStyle=0;childLayout=stackLayout;horizontal=1;startSize=40;horizontalStack=0;resizeParent=1;resizeParentMax=0;resizeLast=0;collapsible=1;marginBottom=0;fillColor=#d5e8d4;strokeColor=#82b366;swimlaneFillColor=#DEF2DD;" parent="1" vertex="1" collapsed="1">
          <mxGeometry x="614" y="380" width="106" height="40" as="geometry">
            <mxRectangle x="614" y="370" width="200" height="130" as="alternateBounds" />
          </mxGeometry>
        </mxCell>
        <mxCell id="HoAdVG3oVDAy_ymMZc5b-11" value="stakedAmount = 100_000_000" style="text;strokeColor=none;fillColor=none;align=left;verticalAlign=middle;spacingLeft=4;spacingRight=4;overflow=hidden;points=[[0,0.5],[1,0.5]];portConstraint=eastwest;rotatable=0;fontFamily=Lucida Console;fontSize=11;" parent="HoAdVG3oVDAy_ymMZc5b-10" vertex="1">
          <mxGeometry y="40" width="200" height="30" as="geometry" />
        </mxCell>
        <mxCell id="HoAdVG3oVDAy_ymMZc5b-12" value="owner = pk(Alice)" style="text;strokeColor=none;fillColor=none;align=left;verticalAlign=middle;spacingLeft=4;spacingRight=4;overflow=hidden;points=[[0,0.5],[1,0.5]];portConstraint=eastwest;rotatable=0;fontFamily=Lucida Console;fontSize=11;" parent="HoAdVG3oVDAy_ymMZc5b-10" vertex="1">
          <mxGeometry y="70" width="200" height="30" as="geometry" />
        </mxCell>
        <mxCell id="HoAdVG3oVDAy_ymMZc5b-13" value="lockedBy = []" style="text;strokeColor=none;fillColor=none;align=left;verticalAlign=middle;spacingLeft=4;spacingRight=4;overflow=hidden;points=[[0,0.5],[1,0.5]];portConstraint=eastwest;rotatable=0;fontFamily=Lucida Console;fontSize=11;" parent="HoAdVG3oVDAy_ymMZc5b-10" vertex="1">
          <mxGeometry y="100" width="200" height="30" as="geometry" />
        </mxCell>
        <mxCell id="HoAdVG3oVDAy_ymMZc5b-15" value="&lt;div style=&quot;font-size: 7px;&quot;&gt;Note: The AssetClass is  the following:&lt;/div&gt;&lt;div style=&quot;font-size: 7px;&quot;&gt;&lt;font style=&quot;font-size: 7px;&quot; face=&quot;Lucida Console&quot; color=&quot;#525252&quot;&gt;(stakePolicySym, stakeValidatorHash)&lt;/font&gt;&lt;br style=&quot;font-size: 7px;&quot;&gt;&lt;/div&gt;" style="text;html=1;strokeColor=none;fillColor=none;align=left;verticalAlign=top;rounded=0;fontSize=7;labelPosition=center;verticalLabelPosition=middle;whiteSpace=wrap;" parent="1" vertex="1">
          <mxGeometry x="420" y="470" width="140" height="50" as="geometry" />
        </mxCell>
        <mxCell id="HoAdVG3oVDAy_ymMZc5b-19" value="Alice" style="text;html=1;strokeColor=none;fillColor=none;align=center;verticalAlign=middle;whiteSpace=wrap;rounded=0;fontSize=12;" parent="1" vertex="1">
          <mxGeometry x="1020.5" y="260" width="60" height="20" as="geometry" />
        </mxCell>
        <mxCell id="FrkUujYTVIfhgadddtNy-26" style="edgeStyle=orthogonalEdgeStyle;rounded=0;orthogonalLoop=1;jettySize=auto;html=1;exitX=1;exitY=0.5;exitDx=0;exitDy=0;entryX=0;entryY=0.5;entryDx=0;entryDy=0;fontFamily=Lucida Console;fontSize=11;fontColor=#525252;" edge="1" parent="1" source="HoAdVG3oVDAy_ymMZc5b-20" target="FrkUujYTVIfhgadddtNy-7">
          <mxGeometry relative="1" as="geometry" />
        </mxCell>
        <mxCell id="HoAdVG3oVDAy_ymMZc5b-20" value="98 ADA" style="rounded=0;whiteSpace=wrap;html=1;fontSize=12;fillColor=#dae8fc;horizontal=1;strokeColor=#6c8ebf;" parent="1" vertex="1">
          <mxGeometry x="894.5" y="270" width="76" height="20" as="geometry" />
        </mxCell>
        <mxCell id="HoAdVG3oVDAy_ymMZc5b-23" value="" style="rounded=0;whiteSpace=wrap;html=1;fontSize=12;fillColor=none;dashed=1;horizontal=1;strokeColor=#000000;gradientColor=none;" parent="1" vertex="1">
          <mxGeometry x="880.5" y="350" width="200" height="140" as="geometry" />
        </mxCell>
        <mxCell id="HoAdVG3oVDAy_ymMZc5b-24" value="Stake Validator" style="text;html=1;strokeColor=none;fillColor=none;align=center;verticalAlign=middle;whiteSpace=wrap;rounded=0;fontSize=12;" parent="1" vertex="1">
          <mxGeometry x="990.5" y="350" width="90" height="20" as="geometry" />
        </mxCell>
        <mxCell id="FrkUujYTVIfhgadddtNy-28" style="edgeStyle=orthogonalEdgeStyle;rounded=0;orthogonalLoop=1;jettySize=auto;html=1;exitX=1;exitY=0.5;exitDx=0;exitDy=0;entryX=0;entryY=0.5;entryDx=0;entryDy=0;fontFamily=Lucida Console;fontSize=11;fontColor=#525252;" edge="1" parent="1" source="HoAdVG3oVDAy_ymMZc5b-25" target="FrkUujYTVIfhgadddtNy-18">
          <mxGeometry relative="1" as="geometry">
            <Array as="points">
              <mxPoint x="1100" y="450" />
              <mxPoint x="1100" y="300" />
            </Array>
          </mxGeometry>
        </mxCell>
        <mxCell id="HoAdVG3oVDAy_ymMZc5b-25" value="300 GT" style="rounded=0;whiteSpace=wrap;html=1;fontSize=12;fillColor=#dae8fc;horizontal=1;strokeColor=#6c8ebf;" parent="1" vertex="1">
          <mxGeometry x="894.5" y="440" width="106" height="20" as="geometry" />
        </mxCell>
        <mxCell id="FrkUujYTVIfhgadddtNy-32" style="edgeStyle=orthogonalEdgeStyle;rounded=0;orthogonalLoop=1;jettySize=auto;html=1;exitX=1;exitY=0.5;exitDx=0;exitDy=0;entryX=0;entryY=0.5;entryDx=0;entryDy=0;fontFamily=Lucida Console;fontSize=11;fontColor=#525252;" edge="1" parent="1" source="HoAdVG3oVDAy_ymMZc5b-26" target="FrkUujYTVIfhgadddtNy-30">
          <mxGeometry relative="1" as="geometry" />
        </mxCell>
        <mxCell id="HoAdVG3oVDAy_ymMZc5b-26" value="1 StakeST" style="rounded=0;whiteSpace=wrap;html=1;fontSize=12;fillColor=#dae8fc;horizontal=1;strokeColor=#6c8ebf;" parent="1" vertex="1">
          <mxGeometry x="894.5" y="460" width="106" height="20" as="geometry" />
        </mxCell>
        <mxCell id="FrkUujYTVIfhgadddtNy-27" style="edgeStyle=orthogonalEdgeStyle;rounded=0;orthogonalLoop=1;jettySize=auto;html=1;exitX=1;exitY=0.5;exitDx=0;exitDy=0;entryX=0;entryY=0.5;entryDx=0;entryDy=0;fontFamily=Lucida Console;fontSize=11;fontColor=#525252;" edge="1" parent="1" source="HoAdVG3oVDAy_ymMZc5b-27" target="FrkUujYTVIfhgadddtNy-7">
          <mxGeometry relative="1" as="geometry">
            <Array as="points">
              <mxPoint x="1120" y="430" />
              <mxPoint x="1120" y="280" />
            </Array>
          </mxGeometry>
        </mxCell>
        <mxCell id="HoAdVG3oVDAy_ymMZc5b-27" value="2 ADA" style="rounded=0;whiteSpace=wrap;html=1;fontSize=12;fillColor=#dae8fc;horizontal=1;strokeColor=#6c8ebf;" parent="1" vertex="1">
          <mxGeometry x="894.5" y="420" width="106" height="20" as="geometry" />
        </mxCell>
        <mxCell id="HoAdVG3oVDAy_ymMZc5b-28" value="StakeDatum (A)" style="rounded=0;whiteSpace=wrap;html=1;fontSize=12;fillColor=#d5e8d4;horizontal=1;strokeColor=#82b366;" parent="1" vertex="1">
          <mxGeometry x="894.5" y="380" width="106" height="40" as="geometry" />
        </mxCell>
        <mxCell id="HoAdVG3oVDAy_ymMZc5b-29" value="StakeDatum" style="swimlane;fontStyle=0;childLayout=stackLayout;horizontal=1;startSize=40;horizontalStack=0;resizeParent=1;resizeParentMax=0;resizeLast=0;collapsible=1;marginBottom=0;fillColor=#d5e8d4;strokeColor=#82b366;swimlaneFillColor=#DEF2DD;" parent="1" vertex="1" collapsed="1">
          <mxGeometry x="894.5" y="380" width="106" height="40" as="geometry">
            <mxRectangle x="894.5" y="380" width="200" height="130" as="alternateBounds" />
          </mxGeometry>
        </mxCell>
        <mxCell id="HoAdVG3oVDAy_ymMZc5b-30" value="stakedAmount = 300_000_000" style="text;strokeColor=none;fillColor=none;align=left;verticalAlign=middle;spacingLeft=4;spacingRight=4;overflow=hidden;points=[[0,0.5],[1,0.5]];portConstraint=eastwest;rotatable=0;fontFamily=Lucida Console;fontSize=11;" parent="HoAdVG3oVDAy_ymMZc5b-29" vertex="1">
          <mxGeometry y="40" width="200" height="30" as="geometry" />
        </mxCell>
        <mxCell id="HoAdVG3oVDAy_ymMZc5b-31" value="owner = pk(Alice)" style="text;strokeColor=none;fillColor=none;align=left;verticalAlign=middle;spacingLeft=4;spacingRight=4;overflow=hidden;points=[[0,0.5],[1,0.5]];portConstraint=eastwest;rotatable=0;fontFamily=Lucida Console;fontSize=11;" parent="HoAdVG3oVDAy_ymMZc5b-29" vertex="1">
          <mxGeometry y="70" width="200" height="30" as="geometry" />
        </mxCell>
        <mxCell id="HoAdVG3oVDAy_ymMZc5b-32" value="lockedBy = []" style="text;strokeColor=none;fillColor=none;align=left;verticalAlign=middle;spacingLeft=4;spacingRight=4;overflow=hidden;points=[[0,0.5],[1,0.5]];portConstraint=eastwest;rotatable=0;fontFamily=Lucida Console;fontSize=11;" parent="HoAdVG3oVDAy_ymMZc5b-29" vertex="1">
          <mxGeometry y="100" width="200" height="30" as="geometry" />
        </mxCell>
        <mxCell id="HoAdVG3oVDAy_ymMZc5b-38" style="edgeStyle=orthogonalEdgeStyle;rounded=0;orthogonalLoop=1;jettySize=auto;html=1;exitX=1;exitY=0.5;exitDx=0;exitDy=0;entryX=0;entryY=0.5;entryDx=0;entryDy=0;fontFamily=Lucida Console;fontSize=11;fontColor=#525252;" parent="1" source="HoAdVG3oVDAy_ymMZc5b-33" target="HoAdVG3oVDAy_ymMZc5b-37" edge="1">
          <mxGeometry relative="1" as="geometry" />
        </mxCell>
        <mxCell id="FrkUujYTVIfhgadddtNy-141" style="edgeStyle=orthogonalEdgeStyle;rounded=0;orthogonalLoop=1;jettySize=auto;html=1;exitX=1;exitY=0.5;exitDx=0;exitDy=0;fontFamily=Lucida Console;fontSize=12;fontColor=#525252;entryX=0;entryY=0.5;entryDx=0;entryDy=0;" edge="1" parent="1" source="HoAdVG3oVDAy_ymMZc5b-33" target="HoAdVG3oVDAy_ymMZc5b-25">
          <mxGeometry relative="1" as="geometry">
            <mxPoint x="840" y="450" as="targetPoint" />
            <Array as="points">
              <mxPoint x="820" y="300" />
              <mxPoint x="820" y="450" />
            </Array>
          </mxGeometry>
        </mxCell>
        <mxCell id="HoAdVG3oVDAy_ymMZc5b-33" value="400 GT" style="rounded=0;whiteSpace=wrap;html=1;fontSize=12;fillColor=#dae8fc;horizontal=1;strokeColor=#6c8ebf;" parent="1" vertex="1">
          <mxGeometry x="614" y="290" width="76" height="20" as="geometry" />
        </mxCell>
        <mxCell id="FrkUujYTVIfhgadddtNy-140" style="edgeStyle=orthogonalEdgeStyle;rounded=0;orthogonalLoop=1;jettySize=auto;html=1;exitX=1;exitY=0.5;exitDx=0;exitDy=0;entryX=0;entryY=0.5;entryDx=0;entryDy=0;fontFamily=Lucida Console;fontSize=12;fontColor=#525252;" edge="1" parent="1" source="HoAdVG3oVDAy_ymMZc5b-37" target="FrkUujYTVIfhgadddtNy-18">
          <mxGeometry relative="1" as="geometry" />
        </mxCell>
        <mxCell id="HoAdVG3oVDAy_ymMZc5b-37" value="200 GT" style="rounded=0;whiteSpace=wrap;html=1;fontSize=12;fillColor=#dae8fc;horizontal=1;strokeColor=#6c8ebf;" parent="1" vertex="1">
          <mxGeometry x="894.5" y="290" width="76" height="20" as="geometry" />
        </mxCell>
        <mxCell id="FrkUujYTVIfhgadddtNy-3" value="" style="group" vertex="1" connectable="0" parent="1">
          <mxGeometry x="840.5" y="180" width="40" height="340" as="geometry" />
        </mxCell>
        <mxCell id="HoAdVG3oVDAy_ymMZc5b-16" value="Tx2" style="rounded=0;whiteSpace=wrap;html=1;fontSize=12;fillColor=#e1d5e7;horizontal=1;strokeColor=#9673a6;" parent="FrkUujYTVIfhgadddtNy-3" vertex="1">
          <mxGeometry width="40" height="40" as="geometry" />
        </mxCell>
        <mxCell id="HoAdVG3oVDAy_ymMZc5b-17" value="" style="endArrow=none;html=1;rounded=0;fontSize=12;entryX=0.5;entryY=1;entryDx=0;entryDy=0;fillColor=#e1d5e7;strokeColor=#9673a6;" parent="FrkUujYTVIfhgadddtNy-3" edge="1">
          <mxGeometry width="50" height="50" relative="1" as="geometry">
            <mxPoint x="19.5" y="340" as="sourcePoint" />
            <mxPoint x="20.500000000000227" y="40" as="targetPoint" />
          </mxGeometry>
        </mxCell>
        <mxCell id="FrkUujYTVIfhgadddtNy-4" value="" style="group" vertex="1" connectable="0" parent="1">
          <mxGeometry x="560" y="180" width="40" height="340" as="geometry" />
        </mxCell>
        <mxCell id="tZ6FYn5pUXqPCZOTzb4P-24" value="Tx1" style="rounded=0;whiteSpace=wrap;html=1;fontSize=12;fillColor=#e1d5e7;horizontal=1;strokeColor=#9673a6;" parent="FrkUujYTVIfhgadddtNy-4" vertex="1">
          <mxGeometry width="40" height="40" as="geometry" />
        </mxCell>
        <mxCell id="tZ6FYn5pUXqPCZOTzb4P-25" value="" style="endArrow=none;html=1;rounded=0;fontSize=12;entryX=0.5;entryY=1;entryDx=0;entryDy=0;fillColor=#e1d5e7;strokeColor=#9673a6;" parent="FrkUujYTVIfhgadddtNy-4" edge="1">
          <mxGeometry width="50" height="50" relative="1" as="geometry">
            <mxPoint x="20" y="340" as="sourcePoint" />
            <mxPoint x="21.000000000000114" y="40" as="targetPoint" />
          </mxGeometry>
        </mxCell>
        <mxCell id="FrkUujYTVIfhgadddtNy-6" value="Alice" style="text;html=1;strokeColor=none;fillColor=none;align=center;verticalAlign=middle;whiteSpace=wrap;rounded=0;fontSize=12;" vertex="1" parent="1">
          <mxGeometry x="1300" y="260" width="60" height="20" as="geometry" />
        </mxCell>
        <mxCell id="FrkUujYTVIfhgadddtNy-7" value="100 ADA" style="rounded=0;whiteSpace=wrap;html=1;fontSize=12;fillColor=#dae8fc;horizontal=1;strokeColor=#6c8ebf;" vertex="1" parent="1">
          <mxGeometry x="1174" y="270" width="76" height="20" as="geometry" />
        </mxCell>
        <mxCell id="FrkUujYTVIfhgadddtNy-18" value="500 GT" style="rounded=0;whiteSpace=wrap;html=1;fontSize=12;fillColor=#dae8fc;horizontal=1;strokeColor=#6c8ebf;" vertex="1" parent="1">
          <mxGeometry x="1174" y="290" width="76" height="20" as="geometry" />
        </mxCell>
        <mxCell id="FrkUujYTVIfhgadddtNy-21" value="" style="group" vertex="1" connectable="0" parent="1">
          <mxGeometry x="1120" y="180" width="40" height="340" as="geometry" />
        </mxCell>
        <mxCell id="FrkUujYTVIfhgadddtNy-22" value="Tx3" style="rounded=0;whiteSpace=wrap;html=1;fontSize=12;fillColor=#e1d5e7;horizontal=1;strokeColor=#9673a6;" vertex="1" parent="FrkUujYTVIfhgadddtNy-21">
          <mxGeometry width="40" height="40" as="geometry" />
        </mxCell>
        <mxCell id="FrkUujYTVIfhgadddtNy-23" value="" style="endArrow=none;html=1;rounded=0;fontSize=12;entryX=0.5;entryY=1;entryDx=0;entryDy=0;fillColor=#e1d5e7;strokeColor=#9673a6;" edge="1" parent="FrkUujYTVIfhgadddtNy-21">
          <mxGeometry width="50" height="50" relative="1" as="geometry">
            <mxPoint x="19.5" y="340" as="sourcePoint" />
            <mxPoint x="20.500000000000227" y="40" as="targetPoint" />
          </mxGeometry>
        </mxCell>
        <mxCell id="FrkUujYTVIfhgadddtNy-30" value="" style="triangle;whiteSpace=wrap;html=1;fontSize=12;strokeColor=default;fillColor=default;" vertex="1" parent="1">
          <mxGeometry x="1300" y="450" width="40" height="40" as="geometry" />
        </mxCell>
        <mxCell id="FrkUujYTVIfhgadddtNy-31" value="1 StakeST is burned" style="text;html=1;strokeColor=none;fillColor=none;align=center;verticalAlign=middle;whiteSpace=wrap;rounded=0;fontSize=12;" vertex="1" parent="1">
          <mxGeometry x="1174" y="440" width="120" height="30" as="geometry" />
        </mxCell>
        <mxCell id="FrkUujYTVIfhgadddtNy-40" value="Legend" style="swimlane;fontStyle=1;childLayout=stackLayout;horizontal=1;startSize=51;horizontalStack=0;resizeParent=1;resizeParentMax=0;resizeLast=0;collapsible=1;marginBottom=0;fontFamily=Helvetica;fontSize=21;fontColor=#525252;" vertex="1" parent="1">
          <mxGeometry x="80" y="69" width="240" height="541" as="geometry">
            <mxRectangle x="80" y="69" width="240" height="50" as="alternateBounds" />
          </mxGeometry>
        </mxCell>
        <mxCell id="FrkUujYTVIfhgadddtNy-124" value="" style="group" vertex="1" connectable="0" parent="FrkUujYTVIfhgadddtNy-40">
          <mxGeometry y="51" width="240" height="490" as="geometry" />
        </mxCell>
        <mxCell id="FrkUujYTVIfhgadddtNy-106" value="" style="rounded=0;whiteSpace=wrap;html=1;fontSize=12;" vertex="1" parent="FrkUujYTVIfhgadddtNy-124">
          <mxGeometry width="240" height="490" as="geometry" />
        </mxCell>
        <mxCell id="FrkUujYTVIfhgadddtNy-107" value="Validator address" style="rounded=0;whiteSpace=wrap;html=1;fontSize=12;fillColor=none;dashed=1;horizontal=1;strokeColor=#000000;gradientColor=none;" vertex="1" parent="FrkUujYTVIfhgadddtNy-124">
          <mxGeometry x="40" y="19" width="160" height="40" as="geometry" />
        </mxCell>
        <mxCell id="FrkUujYTVIfhgadddtNy-108" value="Tx" style="rounded=0;whiteSpace=wrap;html=1;fontSize=12;fillColor=#e1d5e7;horizontal=1;strokeColor=#9673a6;" vertex="1" parent="FrkUujYTVIfhgadddtNy-124">
          <mxGeometry x="40" y="69" width="40" height="40" as="geometry" />
        </mxCell>
        <mxCell id="FrkUujYTVIfhgadddtNy-109" value="&lt;div&gt;Datum&lt;/div&gt;" style="rounded=0;whiteSpace=wrap;html=1;fontSize=12;fillColor=#d5e8d4;horizontal=1;strokeColor=#82b366;" vertex="1" parent="FrkUujYTVIfhgadddtNy-124">
          <mxGeometry x="40" y="119" width="100" height="40" as="geometry" />
        </mxCell>
        <mxCell id="FrkUujYTVIfhgadddtNy-110" value="" style="rounded=0;whiteSpace=wrap;html=1;fontSize=12;fillColor=#d5e8d4;horizontal=1;strokeColor=#82b366;" vertex="1" parent="FrkUujYTVIfhgadddtNy-124">
          <mxGeometry x="150" y="119" width="50" height="46" as="geometry" />
        </mxCell>
        <mxCell id="FrkUujYTVIfhgadddtNy-111" value="Value" style="rounded=0;whiteSpace=wrap;html=1;fontSize=12;fillColor=#dae8fc;horizontal=1;strokeColor=#6c8ebf;" vertex="1" parent="FrkUujYTVIfhgadddtNy-124">
          <mxGeometry x="40" y="169" width="100" height="40" as="geometry" />
        </mxCell>
        <mxCell id="FrkUujYTVIfhgadddtNy-112" value="" style="rounded=0;whiteSpace=wrap;html=1;fontSize=12;fillColor=#dae8fc;horizontal=1;strokeColor=#6c8ebf;" vertex="1" parent="FrkUujYTVIfhgadddtNy-124">
          <mxGeometry x="150" y="165" width="50" height="44" as="geometry" />
        </mxCell>
        <mxCell id="FrkUujYTVIfhgadddtNy-113" value="UTXO" style="text;html=1;strokeColor=none;fillColor=none;align=center;verticalAlign=middle;whiteSpace=wrap;rounded=0;fontSize=12;" vertex="1" parent="FrkUujYTVIfhgadddtNy-124">
          <mxGeometry x="155" y="149" width="40" height="30" as="geometry" />
        </mxCell>
        <mxCell id="FrkUujYTVIfhgadddtNy-114" value="" style="triangle;whiteSpace=wrap;html=1;fontSize=12;strokeColor=default;fillColor=default;" vertex="1" parent="FrkUujYTVIfhgadddtNy-124">
          <mxGeometry x="120" y="229" width="40" height="40" as="geometry" />
        </mxCell>
        <mxCell id="FrkUujYTVIfhgadddtNy-115" value="" style="endArrow=classic;html=1;rounded=0;fontSize=12;entryX=0;entryY=0.5;entryDx=0;entryDy=0;" edge="1" parent="FrkUujYTVIfhgadddtNy-124" target="FrkUujYTVIfhgadddtNy-114">
          <mxGeometry width="50" height="50" relative="1" as="geometry">
            <mxPoint x="40" y="249" as="sourcePoint" />
            <mxPoint x="90" y="269" as="targetPoint" />
          </mxGeometry>
        </mxCell>
        <mxCell id="FrkUujYTVIfhgadddtNy-116" value="Burn" style="text;html=1;strokeColor=none;fillColor=none;align=center;verticalAlign=middle;whiteSpace=wrap;rounded=0;fontSize=12;" vertex="1" parent="FrkUujYTVIfhgadddtNy-124">
          <mxGeometry x="50" y="219" width="60" height="30" as="geometry" />
        </mxCell>
        <mxCell id="FrkUujYTVIfhgadddtNy-117" value="" style="triangle;whiteSpace=wrap;html=1;fontSize=12;strokeColor=default;fillColor=default;" vertex="1" parent="FrkUujYTVIfhgadddtNy-124">
          <mxGeometry x="40" y="289" width="40" height="40" as="geometry" />
        </mxCell>
        <mxCell id="FrkUujYTVIfhgadddtNy-118" value="" style="endArrow=classic;html=1;rounded=0;fontSize=12;exitX=1;exitY=0.5;exitDx=0;exitDy=0;" edge="1" parent="FrkUujYTVIfhgadddtNy-124" source="FrkUujYTVIfhgadddtNy-117">
          <mxGeometry width="50" height="50" relative="1" as="geometry">
            <mxPoint x="120" y="349" as="sourcePoint" />
            <mxPoint x="160" y="309" as="targetPoint" />
          </mxGeometry>
        </mxCell>
        <mxCell id="FrkUujYTVIfhgadddtNy-119" value="Mint" style="text;html=1;strokeColor=none;fillColor=none;align=center;verticalAlign=middle;whiteSpace=wrap;rounded=0;fontSize=12;" vertex="1" parent="FrkUujYTVIfhgadddtNy-124">
          <mxGeometry x="90" y="279" width="60" height="30" as="geometry" />
        </mxCell>
        <mxCell id="FrkUujYTVIfhgadddtNy-120" value="Wallet address" style="rounded=0;whiteSpace=wrap;html=1;fontSize=12;fillColor=#FFFAED;dashed=1;horizontal=1;dashPattern=1 4;strokeColor=#d6b656;" vertex="1" parent="FrkUujYTVIfhgadddtNy-124">
          <mxGeometry x="40" y="349" width="160" height="40" as="geometry" />
        </mxCell>
        <mxCell id="FrkUujYTVIfhgadddtNy-121" style="edgeStyle=orthogonalEdgeStyle;rounded=0;orthogonalLoop=1;jettySize=auto;html=1;exitX=1;exitY=0.5;exitDx=0;exitDy=0;fontSize=12;" edge="1" parent="FrkUujYTVIfhgadddtNy-124" source="FrkUujYTVIfhgadddtNy-122">
          <mxGeometry relative="1" as="geometry">
            <mxPoint x="190" y="450" as="targetPoint" />
          </mxGeometry>
        </mxCell>
        <mxCell id="FrkUujYTVIfhgadddtNy-122" value="..." style="ellipse;whiteSpace=wrap;html=1;aspect=fixed;fontSize=12;strokeColor=#000000;fillColor=none;gradientColor=none;" vertex="1" parent="FrkUujYTVIfhgadddtNy-124">
          <mxGeometry x="45" y="435" width="30" height="30" as="geometry" />
        </mxCell>
        <mxCell id="FrkUujYTVIfhgadddtNy-123" value="Source omitted" style="text;html=1;strokeColor=none;fillColor=none;align=center;verticalAlign=middle;whiteSpace=wrap;rounded=0;fontSize=12;" vertex="1" parent="FrkUujYTVIfhgadddtNy-124">
          <mxGeometry x="75" y="419" width="95" height="20" as="geometry" />
        </mxCell>
        <mxCell id="FrkUujYTVIfhgadddtNy-126" value="Explanation for Tx1" style="swimlane;fontStyle=0;childLayout=stackLayout;horizontal=1;startSize=30;horizontalStack=0;resizeParent=1;resizeParentMax=0;resizeLast=0;collapsible=1;marginBottom=0;fontFamily=Helvetica;fontSize=15;fontColor=#525252;" vertex="1" collapsed="1" parent="1">
          <mxGeometry x="480" y="520" width="200" height="30" as="geometry">
            <mxRectangle x="480" y="520" width="200" height="230" as="alternateBounds" />
          </mxGeometry>
        </mxCell>
        <mxCell id="FrkUujYTVIfhgadddtNy-127" value="A StakeST is minted and sent to the Stake validator. The policy ensures the TokenName matches the script the ST is paid to.   " style="text;strokeColor=none;fillColor=none;align=left;verticalAlign=top;spacingLeft=4;spacingRight=4;overflow=hidden;points=[[0,0.5],[1,0.5]];portConstraint=eastwest;rotatable=0;fontFamily=Helvetica;fontSize=12;fontColor=#525252;whiteSpace=wrap;" vertex="1" parent="FrkUujYTVIfhgadddtNy-126">
          <mxGeometry y="30" width="200" height="70" as="geometry" />
        </mxCell>
        <mxCell id="FrkUujYTVIfhgadddtNy-128" value="The StakeDatum starts off in an empty state, with the owner field needing to be one of the present signatures." style="text;strokeColor=none;fillColor=none;align=left;verticalAlign=top;spacingLeft=4;spacingRight=4;overflow=hidden;points=[[0,0.5],[1,0.5]];portConstraint=eastwest;rotatable=0;fontFamily=Helvetica;fontSize=12;fontColor=#525252;whiteSpace=wrap;" vertex="1" parent="FrkUujYTVIfhgadddtNy-126">
          <mxGeometry y="100" width="200" height="70" as="geometry" />
        </mxCell>
        <mxCell id="FrkUujYTVIfhgadddtNy-129" value="The &quot;Stake Validator&quot; is not called, here, so all of the validation logic is strictly done by the stakePolicy." style="text;strokeColor=none;fillColor=none;align=left;verticalAlign=top;spacingLeft=4;spacingRight=4;overflow=hidden;points=[[0,0.5],[1,0.5]];portConstraint=eastwest;rotatable=0;fontFamily=Helvetica;fontSize=12;fontColor=#525252;whiteSpace=wrap;" vertex="1" parent="FrkUujYTVIfhgadddtNy-126">
          <mxGeometry y="170" width="200" height="60" as="geometry" />
        </mxCell>
        <mxCell id="FrkUujYTVIfhgadddtNy-130" value="Explanation for Tx2" style="swimlane;fontStyle=0;childLayout=stackLayout;horizontal=1;startSize=30;horizontalStack=0;resizeParent=1;resizeParentMax=0;resizeLast=0;collapsible=1;marginBottom=0;fontFamily=Helvetica;fontSize=15;fontColor=#525252;" vertex="1" collapsed="1" parent="1">
          <mxGeometry x="760.5" y="520" width="200" height="30" as="geometry">
            <mxRectangle x="760.5" y="520" width="200" height="170" as="alternateBounds" />
          </mxGeometry>
        </mxCell>
        <mxCell id="FrkUujYTVIfhgadddtNy-131" value="The stake UTXO is spent with the DepositWithdraw redeemer." style="text;strokeColor=none;fillColor=none;align=left;verticalAlign=top;spacingLeft=4;spacingRight=4;overflow=hidden;points=[[0,0.5],[1,0.5]];portConstraint=eastwest;rotatable=0;fontFamily=Helvetica;fontSize=12;fontColor=#525252;whiteSpace=wrap;" vertex="1" parent="FrkUujYTVIfhgadddtNy-130">
          <mxGeometry y="30" width="200" height="40" as="geometry" />
        </mxCell>
        <mxCell id="FrkUujYTVIfhgadddtNy-132" value="GT is spent from Alice&#39;s wallet and put in the resulting stake UTXO." style="text;strokeColor=none;fillColor=none;align=left;verticalAlign=top;spacingLeft=4;spacingRight=4;overflow=hidden;points=[[0,0.5],[1,0.5]];portConstraint=eastwest;rotatable=0;fontFamily=Helvetica;fontSize=12;fontColor=#525252;whiteSpace=wrap;" vertex="1" parent="FrkUujYTVIfhgadddtNy-130">
          <mxGeometry y="70" width="200" height="40" as="geometry" />
        </mxCell>
        <mxCell id="FrkUujYTVIfhgadddtNy-133" value="Here, the stake validator does check for various invariants, such as the stake being unlocked." style="text;strokeColor=none;fillColor=none;align=left;verticalAlign=top;spacingLeft=4;spacingRight=4;overflow=hidden;points=[[0,0.5],[1,0.5]];portConstraint=eastwest;rotatable=0;fontFamily=Helvetica;fontSize=12;fontColor=#525252;whiteSpace=wrap;" vertex="1" parent="FrkUujYTVIfhgadddtNy-130">
          <mxGeometry y="110" width="200" height="60" as="geometry" />
        </mxCell>
        <mxCell id="FrkUujYTVIfhgadddtNy-135" value="Explanation for Tx3" style="swimlane;fontStyle=0;childLayout=stackLayout;horizontal=1;startSize=30;horizontalStack=0;resizeParent=1;resizeParentMax=0;resizeLast=0;collapsible=1;marginBottom=0;fontFamily=Helvetica;fontSize=15;fontColor=#525252;" vertex="1" collapsed="1" parent="1">
          <mxGeometry x="1040.5" y="520" width="200" height="30" as="geometry">
            <mxRectangle x="1040.5" y="520" width="200" height="170" as="alternateBounds" />
          </mxGeometry>
        </mxCell>
        <mxCell id="FrkUujYTVIfhgadddtNy-136" value="The stake UTXO is spent with the Destroy redeemer." style="text;strokeColor=none;fillColor=none;align=left;verticalAlign=top;spacingLeft=4;spacingRight=4;overflow=hidden;points=[[0,0.5],[1,0.5]];portConstraint=eastwest;rotatable=0;fontFamily=Helvetica;fontSize=12;fontColor=#525252;whiteSpace=wrap;" vertex="1" parent="FrkUujYTVIfhgadddtNy-135">
          <mxGeometry y="30" width="200" height="40" as="geometry" />
        </mxCell>
        <mxCell id="FrkUujYTVIfhgadddtNy-137" value="StakeST is burned, which is always allowed." style="text;strokeColor=none;fillColor=none;align=left;verticalAlign=top;spacingLeft=4;spacingRight=4;overflow=hidden;points=[[0,0.5],[1,0.5]];portConstraint=eastwest;rotatable=0;fontFamily=Helvetica;fontSize=12;fontColor=#525252;whiteSpace=wrap;" vertex="1" parent="FrkUujYTVIfhgadddtNy-135">
          <mxGeometry y="70" width="200" height="40" as="geometry" />
        </mxCell>
        <mxCell id="FrkUujYTVIfhgadddtNy-138" value="The remaining GT and ADA outputs all belong to Alice&#39;s wallet, and are collected." style="text;strokeColor=none;fillColor=none;align=left;verticalAlign=top;spacingLeft=4;spacingRight=4;overflow=hidden;points=[[0,0.5],[1,0.5]];portConstraint=eastwest;rotatable=0;fontFamily=Helvetica;fontSize=12;fontColor=#525252;whiteSpace=wrap;" vertex="1" parent="FrkUujYTVIfhgadddtNy-135">
          <mxGeometry y="110" width="200" height="60" as="geometry" />
        </mxCell>
      </root>
    </mxGraphModel>
  </diagram>
</mxfile>
